<svg fill="#E7E7E7" height="200px" width="200px" version="1.1" id="Capa_1" xmlns="http://www.w3.org/2000/svg" xmlns:xlink="http://www.w3.org/1999/xlink" viewBox="0 0 39.989 39.989" xml:space="preserve"><g id="SVGRepo_bgCarrier" stroke-width="0"></g><g id="SVGRepo_tracerCarrier" stroke-linecap="round" stroke-linejoin="round"></g><g id="SVGRepo_iconCarrier"> <path id="XMLID_148_" d="M19.995,0C8.952,0,0,8.952,0,19.994c0,11.043,8.952,19.995,19.995,19.995s19.995-8.952,19.995-19.995 C39.989,8.952,31.037,0,19.995,0z M18.328,26.057c0,0.829-0.671,1.5-1.5,1.5s-1.5-0.671-1.5-1.5V14.724c0-0.829,0.671-1.5,1.5-1.5 s1.5,0.671,1.5,1.5V26.057z M24.661,26.057c0,0.829-0.671,1.5-1.5,1.5s-1.5-0.671-1.5-1.5V14.724c0-0.829,0.671-1.5,1.5-1.5 s1.5,0.671,1.5,1.5V26.057z"></path> </g></svg>
